<svg xmlns="http://www.w3.org/2000/svg" width="453.18" height="447.4" viewBox="0 0 453.18 447.4">
  <g id="Group_1" data-name="Group 1" transform="translate(-245 -1451)">
    <g id="Ellipse_1" data-name="Ellipse 1" transform="translate(245 1476)" fill="#fff" stroke="#707070" stroke-width="1">
      <circle cx="199" cy="199" r="199" stroke="none"/>
      <circle cx="199" cy="199" r="198.5" fill="none"/>
    </g>
    <g id="_1" data-name="1" transform="translate(395 1451)">
      <g id="Layer_1" data-name="Layer 1">
        <path id="Path_563" data-name="Path 563" d="M159.06,154.72h1q3.85,0,8.2,18.8h1l-6.75,14v2.41l7.23,1,1-1h1l2.41,1,4.82-1q12.52,0,19.76,13.49,0,10.62-37.59,29.41l-8.2,2.41v1.44l12.05,8.2h1.93q1.46,0,21.21-20.25,5.29,0,14.46-8.19l13.5-6.75q29.38,9.65,29.4,31.33,0,6.75-14,18.8-1.94,4.81-29.4,33.74l-4.34,7.23v1l1.93,1.45h2.89q23.13,1.94,23.14,10.6,3.84,3.38,3.85,12.53v6.27q0,12.54-15.42,33.74,0,2.42-32.78,30.85l-1,1v2.41q0,2.9,14,4.34l13.49-1q18.8,1.92,18.8,15.42v1q0,7.23-24.1,18.8l-8.19,2.41-.49-.48H187l-3.86.48-5.3-.48-21.21,5.3-5.78-.48-16.39,1.45q-10.6,0-10.61-20.25c-1,0-2.09-2.73-3.37-8.19a73.21,73.21,0,0,0,5.78-19.76q3.38-13,37.12-40l.48-4.34h-1.45a199.781,199.781,0,0,1-44.34,29.4l-17.83,9.16q-11.1,0-20.73-21.21V364.5h1l4.82,5.3h1.93c1.61,0,2.41-1.12,2.41-3.37q-3.37-12-7.71-14.94V349l4.34-1h1q14,10.13,22.66,10.13h1q12.52-1,54-34.71V321h-1q-19.29,0-26,9.16t-22.17,9.16q-5.31,0-25.55-26.51,0-1.92-21.2-30.37V280l18.31-3.85q6.26,0,15.43,8.19h1q1.92-.48,8.68-16.39l14-18.31-1.44-1.45Q107,260.29,101.7,260.76q-13-5.77-13-14L90.13,241q-5.31-7.71-5.3-12.53l.48-.48h1l16.39,1.44q33.26-14.46,34.22-22.17h-1.45q-10.6,3.38-15.42,3.37L91.1,204.85H82.9l-1,1-.48-1h-4.3q-14,12.06-18.8,28.44l-1.44,11.57L58.32,268l-1,9.64q0,5.31,6.75,21.21-1.45,8.21-13,8.19H44.34q-6.75,0-25.06-17.83c-3.22,0-5.78-1.6-7.71-4.82l1-10.12Q0,239.55,0,230.88l2.89-2.41V228L1,218.83l4.3-1.93q10.13,0,24.58,24.58l2.41,1.93h1.45q4.34-5.79,16.39-41Q73.74,173,93.51,173h1q4.82,0,30.37,7.23h6.26q8.68,0,24.59-23.14ZM139.3,0h3.37q6.26,0,14,13l1,2.41-1.92,15,1,3.37-1,9.64,1,2.41-1,3.37v2.41l2.89,1q20.71-8.19,27.47-8.2,12.52,3.39,12.53,9.64,0,9.66-18.31,18.32-13.5,1.94-27,14.46l1,18.32V108q0,2.41,9.64,5.3a23.8,23.8,0,0,1,8.19,16.39q0,16.4-41,27-11.56,12.06-16.38,12l-.49,1q-6.75,0-13-12.53l2.41-7.23-2.41-9.64q0-14.46,9.64-18.31,4.33,0,9.64-16.39l-.48-.48h-2.41q-14,4.82-18.32,4.82Q84.83,109.9,84.83,94l-3.37-3.86v-1q0-6.26,16.39-6.27,27-8.19,27-13.49l1.44-39v-8.2l-3.37-4.82v-1q2.9-2.89,6.75-11.57Q134,0,139.3,0ZM95.92,308l-1.45,2.41v3.37l1.45,1.45h2.41V309Zm30.36-30.37V282q2.41,10.61,4.82,10.6h3.38l1-1,6.75,1.93h2.41q7.71,0,23.62-12.53l1.44-3.38-.48-2.41h-7.71q-7.23,0-23.62-9.64h-1Q128.2,265.58,126.28,277.63Zm44.35,68.93L169.18,349v1h1.45l1.44-1.93Zm20.72-104.11v1h.49c1.28,0,2.89-1.6,4.82-4.82v-4.34h-.49Q191.36,237.63,191.35,242.45Zm75.2-132.55h8.19q14.94,3.38,22.17,13,6.25,13.5,6.27,17.83,0,20.25-35.19,33.74-21.21,11.1-25.06,15.43l-4.34-.48-6.27.48q-14,0-14-9.64c-2.26-1-3.38-1.76-3.38-2.41l13-7.23q28.92-29.4,28.92-40.49l-4.34-4.82q0-1.44,13-4.82a9.05,9.05,0,0,0,2.41-5.78v-1l-1.44-2.41Z"/>
      </g>
    </g>
  </g>
</svg>
